<svg xmlns="http://www.w3.org/2000/svg" xmlns:xlink="http://www.w3.org/1999/xlink" viewBox="0 0 40.22 23.07"><defs><style>.cls-1{fill:url(#linear-gradient);}</style><linearGradient id="linear-gradient" x1="8.62" y1="27.47" x2="32.11" y2="3.98" gradientUnits="userSpaceOnUse"><stop offset="0" stop-color="#3b7ea1"/><stop offset="0.11" stop-color="#41819e"/><stop offset="0.26" stop-color="#538897"/><stop offset="0.43" stop-color="#6f948a"/><stop offset="0.62" stop-color="#97a478"/><stop offset="0.82" stop-color="#cab962"/><stop offset="1" stop-color="#ffcf4a"/></linearGradient></defs><g id="Layer_2" data-name="Layer 2"><g id="Layer_1-2" data-name="Layer 1"><path class="cls-1" d="M34.13,8.91A10.45,10.45,0,0,0,23.78,0a10.62,10.62,0,0,0-7.92,3.62A7.13,7.13,0,0,0,6.38,8.87,7.16,7.16,0,0,0,0,16,7.37,7.37,0,0,0,6,23l28,0h0a7.15,7.15,0,0,0,.17-14.16ZM35,15.53l1.45-1.37a.34.34,0,0,0,.18,0,.47.47,0,0,0,.26-.08l.95.82L36.4,16.65,35,15.6v0A.43.43,0,0,1,35,15.53ZM26.53,16l-5.11,3.17a.76.76,0,0,0-.56-.24.81.81,0,0,0-.43.14l-3.28-3.34a.74.74,0,0,0,.16-.44s0,0,0,0l4.45-2.59a.8.8,0,0,0,.38.11.84.84,0,0,0,.39-.11l4,3a.58.58,0,0,0,0,.18A.8.8,0,0,0,26.53,16ZM11.72,9.5l3.62-1.64a.85.85,0,0,0,.49.17A.88.88,0,0,0,16.16,8l5.23,3.88a1,1,0,0,0,0,.18.82.82,0,0,0,.06.26l-4.31,2.5a.75.75,0,0,0-.58-.27.74.74,0,0,0-.43.14L11.56,10a.85.85,0,0,0,.17-.49S11.72,9.52,11.72,9.5Zm11.14,2.77a.69.69,0,0,0,.05-.24v0l3-1.74a.77.77,0,0,0,.48.18.71.71,0,0,0,.41-.13l3.94,2.78a.5.5,0,0,0,0,.13.53.53,0,0,0,0,.17l-3.25,2a.61.61,0,0,0-.38-.14,1,1,0,0,0-.18,0ZM31,13.77a.71.71,0,0,0,.25.06.63.63,0,0,0,.31-.1L34,15.42a.45.45,0,0,0,0,.16.4.4,0,0,0,.06.22l-2.6,2.4a.53.53,0,0,0-.3-.09.55.55,0,0,0-.31.1l-3.1-2.32Zm.83-.42s0-.08,0-.12l2.26-1.44,2,1.69a.54.54,0,0,0,0,.21.58.58,0,0,0,0,.19l-1.39,1.28a.53.53,0,0,0-.25-.08.47.47,0,0,0-.17,0Zm5.19.51a.51.51,0,0,0,0-.17.33.33,0,0,0,0-.15l.76-.68,1,.84-.8,1Zm2.21.22a3.72,3.72,0,0,1,.22.88l-.53.57-.72-.63.8-1,.23.2ZM13.38,3.82a6.54,6.54,0,0,1,2.46.49l.22.09.15-.19A9.94,9.94,0,0,1,23.78.65a9.73,9.73,0,0,1,6.87,2.8,9.89,9.89,0,0,1,2.88,5.78l0,.26.25,0A6.59,6.59,0,0,1,39.1,13.4l-.11.11-1.18-1.12,0,0-1,.87a.47.47,0,0,0-.46,0L34.17,11.3l0,0L31.7,12.8a.61.61,0,0,0-.41-.17.58.58,0,0,0-.29.09L27.1,9.88a.65.65,0,0,0,0-.19.76.76,0,1,0-1.52,0,.51.51,0,0,0,0,.13l-2.92,1.7a.8.8,0,0,0-.59-.27.72.72,0,0,0-.43.15L16.58,7.57a.88.88,0,0,0,.11-.39.86.86,0,1,0-1.72,0,.85.85,0,0,0,0,.24L11.53,9a.9.9,0,0,0-.74-.39.88.88,0,0,0-.48.15L8.12,6.53A6.56,6.56,0,0,1,13.38,3.82ZM6.67,9.49l.26,0,0-.25A6.55,6.55,0,0,1,7.81,7L9.94,9.17a1,1,0,0,0-.08.38.65.65,0,0,0,0,.2L1,13.79A6.52,6.52,0,0,1,6.67,9.49ZM.65,16a6.54,6.54,0,0,1,.19-1.53l9.3-4.22a1,1,0,0,0,.65.26.86.86,0,0,0,.36-.07l4.61,4.72a.86.86,0,0,0,0,.17.75.75,0,0,0,0,.26L4.73,22A6.69,6.69,0,0,1,.65,16ZM33.9,22.42,6,22.4c-.23,0-.45-.11-.67-.17L16.11,16a.8.8,0,0,0,.41.13,1.24,1.24,0,0,0,.16,0l3.42,3.5a1,1,0,0,0,0,.17.79.79,0,0,0,1.57,0l5.25-3.34a.65.65,0,0,0,.21,0,.58.58,0,0,0,.34-.12l3.1,2.3a.14.14,0,0,0,0,.06.6.6,0,1,0,1.2,0s0-.07,0-.11l2.68-2.52h.08a.55.55,0,0,0,.31-.11l1.65,1.16,0,0,1.59-2,.88.76,0,0,.59-.63c0,.21,0,.43,0,.65A6.49,6.49,0,0,1,33.9,22.42Z"/></g></g></svg>